<svg width="20" height="20" viewBox="0 0 20 20" fill="none" xmlns="http://www.w3.org/2000/svg">
<path d="M16.2245 5.97355C16.2245 5.89852 16.2245 5.89665 16.1458 5.89665C15.961 5.89516 15.7767 5.87949 15.5943 5.84976C14.9322 5.74847 12.7807 4.62304 12.4187 2.7792C12.3753 2.55181 12.3465 2.32188 12.3324 2.09081C12.3324 2.00265 12.3324 2.00266 12.2443 2.00078H9.66328C9.49259 2.00078 9.51697 1.98015 9.51697 2.15084V13.09C9.51982 13.2257 9.51041 13.3613 9.48884 13.4952C9.43729 13.8099 9.32262 14.111 9.15173 14.3802C8.98085 14.6495 8.75727 14.8815 8.49444 15.0621C8.23162 15.2428 7.93497 15.3684 7.62234 15.4314C7.30972 15.4945 6.98757 15.4937 6.67526 15.4291C6.48546 15.3836 6.30024 15.3208 6.12192 15.2415L6.07691 15.2021C6.01682 15.1526 5.95422 15.1063 5.88933 15.0633C5.11091 14.525 4.7414 13.7765 4.85394 12.8406C4.96648 11.9046 5.51419 11.2462 6.41266 10.9142C6.68057 10.8154 6.96607 10.7732 7.25111 10.7904C7.43622 10.797 7.61997 10.8247 7.79881 10.8729C7.86071 10.8917 7.89448 10.8729 7.89823 10.8035C7.89823 10.781 7.89823 10.7585 7.89823 10.7341C7.89823 10.0795 7.87384 8.6502 7.87009 8.64645C7.87009 8.45888 7.87009 8.27131 7.87009 8.08374C7.87009 8.02934 7.84384 8.01996 7.79694 8.01434C7.09992 7.92665 6.39233 7.98237 5.71763 8.17807C5.04293 8.37378 4.41535 8.70534 3.87344 9.1524C3.33153 9.59945 2.88672 10.1526 2.56634 10.7778C2.24595 11.403 2.05675 12.0871 2.01035 12.788C1.99348 13.0555 1.99724 13.3239 2.0216 13.5908C2.08206 14.2951 2.28777 14.9792 2.62578 15.6C2.96378 16.2208 3.42675 16.7649 3.98548 17.1979C4.06641 17.2717 4.15657 17.3348 4.25371 17.3854L4.38125 17.498C4.5166 17.5992 4.66102 17.6878 4.81267 17.7624C5.85397 18.2871 7.04112 18.4475 8.18432 18.218C9.32752 17.9885 10.3608 17.3823 11.1188 16.4963C11.9314 15.5603 12.3737 14.3595 12.3624 13.12C12.3718 11.3043 12.3624 9.48865 12.3624 7.68046C12.3624 7.63732 12.3362 7.57541 12.3849 7.55291C12.4337 7.5304 12.46 7.58667 12.4937 7.60918C13.163 8.05109 13.9064 8.36878 14.6883 8.54704C15.1457 8.65568 15.6138 8.71231 16.0839 8.71585C16.2339 8.71585 16.2527 8.71586 16.2527 8.56017C16.2583 7.90742 16.2245 6.14424 16.2245 5.97355Z" fill="white"/>
</svg>